<?xml version="1.0" standalone="no"?>
<!DOCTYPE svg PUBLIC "-//W3C//DTD SVG 20010904//EN"
 "http://www.w3.org/TR/2001/REC-SVG-20010904/DTD/svg10.dtd">
<svg version="1.0" xmlns="http://www.w3.org/2000/svg"
 width="512.000000pt" height="512.000000pt" viewBox="0 0 512.000000 512.000000"
 preserveAspectRatio="xMidYMid meet">

<g transform="translate(0.000000,512.000000) scale(0.100000,-0.100000)"
fill="#000000" stroke="none">
<path d="M741 4994 c-250 -55 -464 -234 -568 -474 -67 -156 -64 -40 -61 -1990
3 -1980 -4 -1796 78 -1966 105 -218 305 -378 541 -434 86 -20 102 -20 1855
-18 1985 3 1800 -4 1970 78 163 79 295 211 374 374 82 169 75 -8 75 1996 0
2004 7 1827 -75 1996 -79 163 -211 295 -374 374 -170 82 16 75 -1976 77 -1495
1 -1785 -1 -1839 -13z m1939 -565 c616 -56 1162 -402 1475 -934 157 -266 235
-530 258 -873 23 -356 -30 -657 -169 -950 -169 -357 -458 -656 -824 -850 -265
-141 -377 -157 -461 -65 -54 58 -54 55 -59 413 -5 319 -6 337 -27 383 -12 26
-36 64 -53 85 -40 49 -41 100 -2 141 24 27 38 32 112 41 460 60 667 291 671
750 2 200 -31 308 -129 422 -60 68 -70 108 -46 175 21 60 22 200 2 263 -14 43
-16 45 -49 42 -45 -5 -153 -56 -267 -126 -107 -66 -109 -67 -287 -26 -85 20
-128 24 -285 24 -157 0 -200 -4 -285 -23 -55 -12 -123 -25 -151 -28 -47 -5
-55 -2 -111 36 -115 78 -293 145 -310 117 -4 -6 -9 -58 -11 -116 -3 -92 2
-141 25 -252 4 -22 -3 -36 -32 -70 -48 -57 -100 -168 -116 -246 -17 -91 -7
-325 20 -425 56 -213 186 -356 393 -434 70 -26 281 -73 329 -73 6 0 21 -11 34
-25 38 -37 31 -109 -14 -142 -30 -22 -72 -23 -187 -3 -494 85 -747 349 -795
830 -22 228 19 418 126 586 l35 55 -16 56 c-13 43 -15 82 -11 167 6 143 34
235 87 288 35 35 42 38 96 38 108 -1 243 -46 382 -130 l84 -49 61 15 c41 10
132 17 267 21 172 4 231 2 366 -16 l161 -21 79 45 c207 118 392 163 470 116
23 -14 38 -36 54 -77 43 -117 52 -180 47 -332 l-4 -144 44 -76 c89 -157 116
-264 115 -457 -2 -310 -79 -525 -251 -695 -73 -73 -102 -94 -191 -138 -60 -30
-146 -62 -200 -76 -63 -16 -94 -29 -93 -38 1 -7 9 -48 17 -91 12 -60 16 -143
16 -349 l0 -269 23 6 c55 17 209 89 286 135 421 250 701 655 796 1150 23 119
31 375 15 508 -89 763 -675 1361 -1440 1468 -154 22 -422 14 -565 -16 -928
-196 -1519 -1107 -1311 -2020 127 -555 507 -1003 1020 -1201 43 -16 79 -29 80
-27 2 2 -1 41 -5 88 -4 47 -8 130 -8 186 l-1 101 -102 6 c-117 7 -186 25 -273
70 -116 62 -245 221 -245 303 0 41 31 80 75 94 49 16 92 -10 122 -71 33 -69
112 -135 190 -159 74 -23 188 -26 276 -9 71 15 103 6 127 -34 19 -30 20 -51
20 -338 l0 -305 -29 -45 c-68 -108 -176 -107 -415 0 -375 170 -707 495 -891
876 -385 794 -187 1743 479 2303 392 328 889 487 1386 441z"/>
</g>
</svg>
