<?xml version="1.0" standalone="no"?>
<!DOCTYPE svg PUBLIC "-//W3C//DTD SVG 20010904//EN"
 "http://www.w3.org/TR/2001/REC-SVG-20010904/DTD/svg10.dtd">
<svg version="1.0" xmlns="http://www.w3.org/2000/svg"
 width="512.000000pt" height="512.000000pt" viewBox="0 0 512.000000 512.000000"
 preserveAspectRatio="xMidYMid meet">

<g transform="translate(0.000000,512.000000) scale(0.100000,-0.100000)"
fill="#000000" stroke="none">
<path d="M412 5100 c-99 -26 -174 -71 -252 -149 -77 -79 -114 -142 -140 -247
-20 -76 -20 -118 -20 -2144 0 -2029 0 -2068 20 -2144 25 -101 69 -176 144
-252 76 -75 151 -119 252 -144 76 -20 115 -20 2144 -20 2026 0 2068 0 2144 20
105 26 168 63 247 140 80 79 123 153 149 256 20 76 20 115 20 2144 0 2029 0
2068 -20 2144 -26 103 -69 177 -149 256 -78 77 -142 113 -247 140 -76 20 -117
20 -2148 19 -2010 0 -2073 -1 -2144 -19z m889 -581 c234 -67 393 -325 350
-567 -49 -274 -305 -463 -573 -424 -201 29 -368 173 -423 365 -19 67 -22 204
-5 269 37 137 144 265 277 329 123 60 235 69 374 28z m285 -1365 c15 -11 37
-33 48 -48 21 -27 21 -31 21 -1231 l0 -1204 -21 -28 c-12 -15 -36 -37 -55 -48
-32 -19 -52 -20 -434 -20 l-400 0 -38 23 c-78 49 -72 -52 -75 1255 -1 774 1
1181 8 1206 5 21 20 51 32 66 42 54 49 55 485 52 388 -2 402 -3 429 -23z
m1361 0 c15 -11 37 -34 49 -51 19 -28 22 -29 45 -18 37 20 146 54 220 70 538
115 1078 -213 1234 -750 42 -146 46 -249 43 -1010 -3 -693 -3 -711 -23 -745
-12 -19 -36 -43 -55 -55 -34 -19 -51 -20 -440 -20 -446 0 -437 -1 -485 63 -19
26 -20 47 -25 757 l-5 730 -29 53 c-84 151 -283 175 -395 46 -18 -20 -38 -48
-44 -63 -9 -19 -13 -225 -17 -756 l-5 -730 -23 -33 c-49 -68 -43 -67 -487 -67
-383 0 -401 1 -435 20 -21 12 -44 39 -58 65 l-22 45 2 1186 3 1186 29 37 c50
66 46 66 493 63 390 -2 402 -3 430 -23z"/>
<path d="M1105 4241 c-120 -30 -188 -137 -163 -256 19 -90 116 -165 213 -165
36 0 123 39 147 66 26 29 58 105 58 139 0 133 -133 246 -255 216z"/>
<path d="M935 2868 c-3 -7 -4 -458 -3 -1003 l3 -990 213 -3 212 -2 0 1005 0
1005 -210 0 c-159 0 -212 -3 -215 -12z"/>
<path d="M2292 1878 l3 -1003 210 0 210 0 5 655 5 655 28 70 c82 208 296 356
511 355 68 0 173 -27 244 -62 87 -42 196 -150 236 -233 63 -129 60 -92 64
-798 l3 -647 212 2 212 3 3 615 c2 383 -1 650 -8 707 -30 264 -185 484 -427
606 -98 50 -196 71 -328 71 -205 0 -303 -38 -527 -201 -40 -30 -110 -31 -156
-3 -50 31 -72 75 -72 148 l0 62 -215 0 -215 0 2 -1002z"/>
</g>
</svg>
